# xmcd
#
# Track frame offsets: 
#        150
#        21935
#        42842
#
# Disc length: 891 seconds
#
# Revision: 6
# Processed by: cddbd v1.5.2PL0 Copyright (c) Steve Scherf et al.
# Submitted via: ExactAudioCopy v0.95a5
#
DISCID=1c037903
DTITLE=Roberta Flack - Killing Me Softly With His Song
DYEAR=1996
DGENRE=blues
TTITLE0=Killing Me Softly With His Song
TTITLE1=Natural Thing
TTITLE2=The First Time Ever I Saw Your Face
EXTD=ID3G:   0 YEAR: 1996 id3G:   0 \nAtlantic 7567-85491-2
EXTT0=
EXTT1=
EXTT2=
PLAYORDER=
